<svg width="107" height="107" viewBox="0 0 107 107" fill="none" xmlns="http://www.w3.org/2000/svg">
<path d="M53.5 0C83.0472 0 107 23.9528 107 53.5C107 83.0472 83.0472 107 53.5 107C23.9528 107 0 83.0472 0 53.5V8.97754C0 8.4221 0.586537 8.05455 1.07812 8.30273L1.1748 8.36133L2.48438 9.28223C4.14078 10.4565 6.65007 12.2668 8.31445 13.6113C9.52814 14.5918 10.9085 15.779 11.9834 16.7188C12.5214 17.1891 12.9845 17.5979 13.3125 17.8896C13.3645 17.9359 13.413 17.9794 13.458 18.0195C23.2583 6.96738 37.5655 0 53.5 0ZM53.9951 27.248C39.223 27.2482 27.2482 39.223 27.248 53.9951C27.248 68.7674 39.2229 80.7431 53.9951 80.7432C68.7674 80.7432 80.7432 68.7674 80.7432 53.9951C80.7431 39.2229 68.7674 27.248 53.9951 27.248Z" fill="#E41B23"/>
</svg>
