<svg width="80" height="24" viewBox="0 0 80 24" fill="none" xmlns="http://www.w3.org/2000/svg">
<path d="M12 0C18.6274 0 24 5.37259 24 12C24 18.6274 18.6274 24 12 24C5.37259 24 0 18.6274 0 12V2.01365C0 1.88907 0.13156 1.80663 0.241821 1.86229L0.263507 1.87544L0.557244 2.082C0.928773 2.34538 1.4916 2.75143 1.86492 3.053C2.13715 3.27293 2.44677 3.53921 2.68787 3.75001C2.80854 3.8555 2.91241 3.94719 2.98598 4.01262C2.99764 4.02301 3.00852 4.03276 3.01862 4.04176C5.21681 1.56278 8.42591 0 12 0ZM12.111 6.1117C8.79768 6.11175 6.11175 8.79768 6.1117 12.111C6.1117 15.4245 8.79766 18.1106 12.111 18.1106C15.4245 18.1106 18.1106 15.4245 18.1106 12.111C18.1106 8.79766 15.4245 6.1117 12.111 6.1117Z" fill="#1258B9"/>
<path d="M76.5724 23.3836C75.7995 23.3836 75.1321 23.223 74.57 22.9018C74.0112 22.5772 73.5813 22.1189 73.2802 21.5267C72.9791 20.9312 72.8285 20.2302 72.8285 19.4239C72.8285 18.631 72.9791 17.9351 73.2802 17.3362C73.5847 16.734 74.0096 16.2656 74.5549 15.931C75.1003 15.5931 75.741 15.4241 76.477 15.4241C76.9521 15.4241 77.4005 15.5011 77.822 15.655C78.2469 15.8055 78.6216 16.0397 78.9462 16.3576C79.2741 16.6754 79.5317 17.0802 79.719 17.5721C79.9064 18.0605 80.0001 18.6427 80.0001 19.3185V19.8756H73.6817V18.651H78.2586C78.2553 18.3031 78.18 17.9936 78.0328 17.7226C77.8856 17.4483 77.6798 17.2325 77.4155 17.0752C77.1545 16.918 76.8501 16.8393 76.5021 16.8393C76.1308 16.8393 75.8046 16.9297 75.5235 17.1103C75.2425 17.2877 75.0233 17.5219 74.8661 17.8129C74.7122 18.1007 74.6336 18.4168 74.6302 18.7615V19.8304C74.6302 20.2787 74.7122 20.6635 74.8761 20.9847C75.0401 21.3025 75.2692 21.5468 75.5637 21.7174C75.8581 21.8847 76.2027 21.9683 76.5975 21.9683C76.8618 21.9683 77.101 21.9315 77.3151 21.8579C77.5293 21.781 77.715 21.6689 77.8722 21.5217C78.0294 21.3745 78.1482 21.1921 78.2285 20.9746L79.9248 21.1654C79.8177 21.6137 79.6136 22.0051 79.3125 22.3397C79.0148 22.6709 78.6334 22.9285 78.1683 23.1126C77.7032 23.2932 77.1713 23.3836 76.5724 23.3836Z" fill="var(--color-text-primary)"/>
<path d="M68.3658 23.3836C67.5962 23.3836 66.9355 23.2146 66.3834 22.8767C65.8347 22.5388 65.4115 22.072 65.1137 21.4765C64.8193 20.8776 64.6721 20.1884 64.6721 19.4089C64.6721 18.626 64.8226 17.9351 65.1238 17.3362C65.4249 16.734 65.8498 16.2656 66.3985 15.931C66.9505 15.5931 67.6029 15.4241 68.3557 15.4241C68.9814 15.4241 69.5351 15.5395 70.0169 15.7704C70.502 15.9979 70.8884 16.3208 71.1762 16.739C71.4639 17.1538 71.6278 17.639 71.668 18.1944H69.9316C69.8613 17.823 69.694 17.5135 69.4297 17.2659C69.1687 17.015 68.8191 16.8895 68.3808 16.8895C68.0094 16.8895 67.6832 16.9899 67.4022 17.1906C67.1212 17.388 66.902 17.6724 66.7448 18.0438C66.5909 18.4152 66.5139 18.8602 66.5139 19.3787C66.5139 19.904 66.5909 20.3557 66.7448 20.7338C66.8987 21.1085 67.1145 21.3979 67.3922 21.602C67.6732 21.8027 68.0027 21.9031 68.3808 21.9031C68.6485 21.9031 68.8877 21.8529 69.0985 21.7525C69.3126 21.6488 69.4916 21.4999 69.6355 21.3059C69.7793 21.1118 69.878 20.8759 69.9316 20.5983H71.668C71.6245 21.1436 71.4639 21.6271 71.1862 22.0486C70.9085 22.4668 70.5304 22.7947 70.052 23.0323C69.5736 23.2665 69.0115 23.3836 68.3658 23.3836Z" fill="var(--color-text-primary)"/>
<path d="M58.2081 18.7163V23.233H56.3914V15.5245H58.1278V16.8343H58.2182C58.3955 16.4027 58.6782 16.0598 59.0663 15.8055C59.4578 15.5512 59.9412 15.4241 60.5167 15.4241C61.0486 15.4241 61.512 15.5379 61.9068 15.7654C62.305 15.9929 62.6128 16.3224 62.8302 16.754C63.051 17.1856 63.1598 17.7092 63.1564 18.3248V23.233H61.3397V18.6059C61.3397 18.0906 61.2059 17.6875 60.9382 17.3964C60.6739 17.1053 60.3076 16.9598 59.8392 16.9598C59.5213 16.9598 59.2386 17.03 58.991 17.1706C58.7468 17.3077 58.5544 17.5068 58.4139 17.7678C58.2767 18.0287 58.2081 18.3449 58.2081 18.7163Z" fill="var(--color-text-primary)"/>
<path d="M50.4946 23.3886C50.0061 23.3886 49.5662 23.3016 49.1747 23.1276C48.7866 22.9503 48.4788 22.6893 48.2513 22.3447C48.0272 22.0001 47.9151 21.5752 47.9151 21.07C47.9151 20.6351 47.9954 20.2754 48.156 19.991C48.3166 19.7066 48.5357 19.4791 48.8134 19.3085C49.0911 19.1379 49.4039 19.009 49.7519 18.9221C50.1032 18.8317 50.4662 18.7665 50.8409 18.7263C51.2926 18.6795 51.6589 18.6377 51.94 18.6009C52.221 18.5607 52.4251 18.5005 52.5522 18.4202C52.6827 18.3366 52.748 18.2077 52.748 18.0338V18.0037C52.748 17.6256 52.6359 17.3328 52.4117 17.1254C52.1875 16.918 51.8647 16.8143 51.4431 16.8143C50.9981 16.8143 50.6452 16.9113 50.3842 17.1053C50.1266 17.2994 49.9526 17.5286 49.8623 17.7929L48.166 17.552C48.2998 17.0836 48.5206 16.6921 48.8285 16.3776C49.1363 16.0598 49.5126 15.8222 49.9576 15.665C50.4026 15.5044 50.8944 15.4241 51.4331 15.4241C51.8045 15.4241 52.1742 15.4676 52.5422 15.5546C52.9102 15.6416 53.2465 15.7854 53.5509 15.9862C53.8554 16.1836 54.0996 16.4529 54.2836 16.7942C54.471 17.1354 54.5647 17.562 54.5647 18.0739V23.233H52.8182V22.1741H52.758C52.6476 22.3882 52.492 22.589 52.2913 22.7763C52.0939 22.9603 51.8446 23.1092 51.5435 23.223C51.2457 23.3334 50.8961 23.3886 50.4946 23.3886ZM50.9664 22.0536C51.331 22.0536 51.6472 21.9817 51.9149 21.8378C52.1825 21.6906 52.3883 21.4966 52.5322 21.2557C52.6794 21.0148 52.753 20.7522 52.753 20.4678V19.5594C52.6961 19.6062 52.5991 19.6497 52.4619 19.6899C52.3281 19.73 52.1775 19.7652 52.0102 19.7953C51.8429 19.8254 51.6773 19.8522 51.5134 19.8756C51.3494 19.899 51.2073 19.9191 51.0868 19.9358C50.8158 19.9726 50.5732 20.0328 50.3591 20.1165C50.145 20.2001 49.976 20.3172 49.8522 20.4678C49.7284 20.615 49.6666 20.8057 49.6666 21.0399C49.6666 21.3745 49.7887 21.6271 50.0329 21.7977C50.2771 21.9683 50.5883 22.0536 50.9664 22.0536Z" fill="var(--color-text-primary)"/>
<path d="M41.4813 18.7163V23.233H39.6646V15.5245H41.401V16.8343H41.4913C41.6687 16.4027 41.9514 16.0598 42.3395 15.8055C42.7309 15.5512 43.2144 15.4241 43.7899 15.4241C44.3218 15.4241 44.7852 15.5379 45.18 15.7654C45.5781 15.9929 45.8859 16.3224 46.1034 16.754C46.3242 17.1856 46.433 17.7092 46.4296 18.3248V23.233H44.6129V18.6059C44.6129 18.0906 44.4791 17.6875 44.2114 17.3964C43.9471 17.1053 43.5807 16.9598 43.1123 16.9598C42.7945 16.9598 42.5118 17.03 42.2642 17.1706C42.02 17.3077 41.8276 17.5068 41.6871 17.7678C41.5499 18.0287 41.4813 18.3449 41.4813 18.7163Z" fill="var(--color-text-primary)"/>
<path d="M35.9796 23.233V15.5244H37.7963V23.233H35.9796ZM36.893 14.4304C36.6052 14.4304 36.3577 14.335 36.1502 14.1443C35.9428 13.9503 35.8391 13.7177 35.8391 13.4467C35.8391 13.1724 35.9428 12.9399 36.1502 12.7492C36.3577 12.5551 36.6052 12.4581 36.893 12.4581C37.1841 12.4581 37.4316 12.5551 37.6357 12.7492C37.8432 12.9399 37.9469 13.1724 37.9469 13.4467C37.9469 13.7177 37.8432 13.9503 37.6357 14.1443C37.4316 14.335 37.1841 14.4304 36.893 14.4304Z" fill="var(--color-text-primary)"/>
<path d="M34.5569 15.5241V16.9293H30V15.5241H34.5569ZM31.1392 23.2327V14.7964C31.1392 14.2779 31.2463 13.8463 31.4604 13.5017C31.6779 13.157 31.969 12.8994 32.3337 12.7288C32.6983 12.5582 33.1032 12.4728 33.5482 12.4728C33.8627 12.4728 34.142 12.4979 34.3863 12.5481C34.6305 12.5983 34.8112 12.6435 34.9283 12.6836L34.5669 14.0888C34.49 14.0654 34.393 14.042 34.2759 14.0186C34.1588 13.9918 34.0283 13.9784 33.8844 13.9784C33.5465 13.9784 33.3073 14.0604 33.1667 14.2243C33.0296 14.3849 32.961 14.6158 32.961 14.9169V23.2327H31.1392Z" fill="var(--color-text-primary)"/>
<path d="M75.7769 9.72748e-05V10.2781H73.9602V9.72748e-05H75.7769Z" fill="var(--color-text-primary)"/>
<path d="M72.0921 9.72748e-05V10.2781H70.2754V9.72748e-05H72.0921Z" fill="var(--color-text-primary)"/>
<path d="M65.3107 10.4289C64.5378 10.4289 63.8704 10.2683 63.3083 9.94711C62.7496 9.62258 62.3196 9.16421 62.0185 8.57202C61.7174 7.97648 61.5668 7.27556 61.5668 6.46924C61.5668 5.67631 61.7174 4.9804 62.0185 4.38151C62.323 3.77929 62.7479 3.31089 63.2932 2.97631C63.8386 2.6384 64.4793 2.46944 65.2153 2.46944C65.6904 2.46944 66.1388 2.54639 66.5603 2.70029C66.9852 2.85085 67.36 3.08505 67.6845 3.40289C68.0124 3.72074 68.27 4.12557 68.4573 4.61739C68.6447 5.10586 68.7384 5.68802 68.7384 6.36385V6.92091H62.42V5.69638H66.9969C66.9936 5.34843 66.9183 5.03895 66.7711 4.76794C66.6239 4.4936 66.4181 4.2778 66.1538 4.12055C65.8929 3.9633 65.5884 3.88468 65.2404 3.88468C64.8691 3.88468 64.5429 3.97501 64.2618 4.15568C63.9808 4.333 63.7616 4.5672 63.6044 4.85828C63.4505 5.14601 63.3719 5.46218 63.3685 5.80679V6.87574C63.3685 7.32407 63.4505 7.70883 63.6144 8.03002C63.7784 8.34786 64.0075 8.5921 64.302 8.76273C64.5964 8.93001 64.941 9.01366 65.3358 9.01366C65.6001 9.01366 65.8393 8.97685 66.0535 8.90325C66.2676 8.8263 66.4533 8.71421 66.6105 8.567C66.7678 8.41979 66.8865 8.23745 66.9668 8.01998L68.6631 8.21068C68.556 8.65901 68.352 9.05046 68.0508 9.38503C67.7531 9.71626 67.3717 9.97388 66.9066 10.1579C66.4416 10.3386 65.9096 10.4289 65.3107 10.4289Z" fill="var(--color-text-primary)"/>
<path d="M60.2344 4.60735L58.5782 4.78802C58.5314 4.62073 58.4494 4.46348 58.3323 4.31627C58.2186 4.16906 58.0647 4.05029 57.8706 3.95995C57.6766 3.86962 57.439 3.82445 57.158 3.82445C56.7799 3.82445 56.4621 3.90642 56.2045 4.07036C55.9502 4.2343 55.8247 4.44676 55.8281 4.70772C55.8247 4.93188 55.9067 5.11423 56.074 5.25475C56.2446 5.39527 56.5256 5.51069 56.9171 5.60103L58.232 5.88207C58.9613 6.03932 59.5033 6.28857 59.858 6.62983C60.216 6.9711 60.3966 7.41775 60.4 7.96979C60.3966 8.45492 60.2544 8.88317 59.9734 9.25455C59.6957 9.62258 59.3093 9.91031 58.8141 10.1177C58.3189 10.3252 57.7502 10.4289 57.1078 10.4289C56.1643 10.4289 55.4048 10.2315 54.8294 9.8367C54.2539 9.43856 53.911 8.88485 53.8006 8.17556L55.5721 8.00492C55.6524 8.35288 55.823 8.61552 56.084 8.79284C56.345 8.97016 56.6846 9.05882 57.1028 9.05882C57.5344 9.05882 57.8807 8.97016 58.1416 8.79284C58.4059 8.61552 58.5381 8.39637 58.5381 8.13541C58.5381 7.91459 58.4528 7.73225 58.2821 7.58838C58.1149 7.44452 57.8539 7.33411 57.4992 7.25716L56.1844 6.98113C55.445 6.82723 54.898 6.56794 54.5433 6.20326C54.1887 5.83523 54.013 5.37017 54.0164 4.80809C54.013 4.333 54.1418 3.92148 54.4028 3.57352C54.6671 3.22222 55.0335 2.95122 55.5019 2.76052C55.9736 2.56646 56.5173 2.46944 57.1329 2.46944C58.0362 2.46944 58.7472 2.66182 59.2658 3.04657C59.7877 3.43133 60.1106 3.95159 60.2344 4.60735Z" fill="var(--color-text-primary)"/>
<path d="M48.5387 10.2784V2.56985H50.3002V3.85461H50.3805C50.521 3.40963 50.7619 3.06669 51.1032 2.8258C51.4478 2.58156 51.8409 2.45945 52.2826 2.45945C52.3829 2.45945 52.495 2.46446 52.6188 2.4745C52.7459 2.48119 52.8513 2.4929 52.935 2.50963V4.18082C52.858 4.15405 52.7359 4.13063 52.5686 4.11056C52.4047 4.08714 52.2458 4.07543 52.0919 4.07543C51.7606 4.07543 51.4629 4.14736 51.1985 4.29122C50.9376 4.43174 50.7318 4.62747 50.5813 4.8784C50.4307 5.12933 50.3554 5.41873 50.3554 5.74661V10.2784H48.5387Z" fill="var(--color-text-primary)"/>
<path d="M43.303 10.4289C42.5502 10.4289 41.8978 10.2633 41.3457 9.93205C40.7937 9.60083 40.3654 9.13745 40.061 8.54191C39.7598 7.94637 39.6093 7.25046 39.6093 6.45418C39.6093 5.6579 39.7598 4.96032 40.061 4.36144C40.3654 3.76256 40.7937 3.2975 41.3457 2.96628C41.8978 2.63505 42.5502 2.46944 43.303 2.46944C44.0557 2.46944 44.7082 2.63505 45.2602 2.96628C45.8122 3.2975 46.2388 3.76256 46.5399 4.36144C46.8444 4.96032 46.9966 5.6579 46.9966 6.45418C46.9966 7.25046 46.8444 7.94637 46.5399 8.54191C46.2388 9.13745 45.8122 9.60083 45.2602 9.93205C44.7082 10.2633 44.0557 10.4289 43.303 10.4289ZM43.313 8.97351C43.7212 8.97351 44.0624 8.86143 44.3368 8.63726C44.6111 8.40975 44.8152 8.10529 44.9491 7.72388C45.0862 7.34247 45.1548 6.91757 45.1548 6.44917C45.1548 5.97742 45.0862 5.55084 44.9491 5.16943C44.8152 4.78467 44.6111 4.47854 44.3368 4.25103C44.0624 4.02352 43.7212 3.90977 43.313 3.90977C42.8948 3.90977 42.5468 4.02352 42.2691 4.25103C41.9948 4.47854 41.789 4.78467 41.6518 5.16943C41.518 5.55084 41.4511 5.97742 41.4511 6.44917C41.4511 6.91757 41.518 7.34247 41.6518 7.72388C41.789 8.10529 41.9948 8.40975 42.2691 8.63726C42.5468 8.86143 42.8948 8.97351 43.313 8.97351Z" fill="var(--color-text-primary)"/>
<path d="M30.7328 10.2781V9.72748e-05H34.6674C35.4101 9.72748e-05 36.0274 0.117197 36.5192 0.351397C37.0144 0.582252 37.3841 0.898422 37.6283 1.29991C37.8759 1.70139 37.9997 2.15641 37.9997 2.66496C37.9997 3.08317 37.9194 3.44116 37.7588 3.73893C37.5982 4.03336 37.3824 4.27257 37.1114 4.45659C36.8404 4.6406 36.5376 4.77276 36.203 4.85306V4.95343C36.5677 4.9735 36.9173 5.08558 37.2519 5.28967C37.5898 5.49041 37.8659 5.7748 38.08 6.14283C38.2941 6.51086 38.4012 6.95584 38.4012 7.47777C38.4012 8.00974 38.2724 8.48817 38.0147 8.91308C37.7571 9.33464 37.369 9.66754 36.8504 9.91177C36.3318 10.156 35.6794 10.2781 34.8932 10.2781H30.7328ZM32.5947 8.72237H34.5971C35.2729 8.72237 35.7597 8.59356 36.0575 8.33594C36.3586 8.07498 36.5092 7.74041 36.5092 7.33223C36.5092 7.02777 36.4339 6.75342 36.2833 6.50918C36.1328 6.2616 35.9186 6.06755 35.641 5.92703C35.3633 5.78316 35.032 5.71123 34.6473 5.71123H32.5947V8.72237ZM32.5947 4.37127H34.4365C34.7577 4.37127 35.0471 4.31272 35.3047 4.19562C35.5623 4.07518 35.7647 3.90622 35.912 3.68875C36.0625 3.46793 36.1378 3.20696 36.1378 2.90585C36.1378 2.50771 35.9973 2.17983 35.7162 1.92221C35.4385 1.66459 35.0253 1.53578 34.4766 1.53578H32.5947V4.37127Z" fill="var(--color-text-primary)"/>
</svg>
